<svg width="61" height="53" viewBox="0 0 61 53" fill="none" xmlns="http://www.w3.org/2000/svg">
<path d="M20.5692 18.6373L17.5106 24.7817L9.74017 27.1074C9.32448 27.2317 9.09772 27.6419 9.23277 28.0238C9.3408 28.331 9.65134 28.5264 9.98421 28.5264C10.0652 28.5264 10.1472 28.5149 10.2282 28.4909L18.3286 26.0666C18.5389 26.0036 18.7105 25.8633 18.8031 25.6777L21.7749 19.7074L28.9521 20.2527C29.252 20.2811 29.5308 20.1435 29.6871 19.9125L33.8762 13.7229L39.842 14.2167C40.1506 14.2319 40.4515 14.0959 40.603 13.8446L47.2165 2.86523L48.2268 8.11233C48.2953 8.46488 48.628 8.71266 49.0042 8.71266C49.0506 8.71266 49.0968 8.70912 49.1431 8.70205C49.5733 8.63187 49.8598 8.25357 49.7835 7.85836L48.3839 0.593228C48.3816 0.581623 48.3719 0.573003 48.3689 0.561509C48.3491 0.480832 48.3117 0.407118 48.2635 0.336608C48.2512 0.318705 48.2463 0.297485 48.2325 0.280797C48.1682 0.202883 48.0874 0.134805 47.9884 0.0844093C47.9838 0.0820885 47.9788 0.08242 47.9741 0.0802097C47.9694 0.0778888 47.967 0.0733578 47.9623 0.0711475C47.9375 0.0597643 47.9093 0.0627483 47.8836 0.0537964C47.8031 0.0253937 47.723 0.00362183 47.6405 0.000195822C47.6057 -0.00124089 47.5736 0.00561113 47.5387 0.00826352C47.4587 0.0144525 47.3834 0.0285986 47.3095 0.0565593C47.2926 0.0628587 47.2736 0.0600957 47.2572 0.0675003L39.863 3.41273C39.4714 3.58944 39.3093 4.02543 39.5022 4.38604C39.6942 4.74655 40.1687 4.89752 40.5594 4.71815L45.6926 2.39653L39.4704 12.7247L33.5326 12.2336C33.2346 12.2043 32.9481 12.3401 32.7919 12.5738L28.6008 18.766L21.3522 18.2154C21.0216 18.1898 20.7081 18.3584 20.5692 18.6373Z" fill="#FD7E14" fill-opacity="0.75"/>
<path d="M59.21 50.4954H56.6721V10.898C56.6721 10.4652 56.2918 10.1207 55.8322 10.1207H47.4763C47.0167 10.1207 46.6363 10.4652 46.6363 10.898V50.4954H44.2275V17.6632C44.2275 17.2303 43.8472 16.8859 43.3875 16.8859H35.0307C34.5711 16.8859 34.1907 17.2303 34.1907 17.6632V50.4955H31.7819V26.7566C31.7819 26.3238 31.4016 25.9793 30.942 25.9793H22.5861C22.1265 25.9793 21.7461 26.3238 21.7461 26.7566V50.4954H19.3373V34.1406C19.3373 33.7078 18.957 33.3633 18.4973 33.3633H10.1415C9.68185 33.3633 9.3015 33.7078 9.3015 34.1406V50.4954H5.16348C4.70385 50.4954 4.3235 50.8399 4.3235 51.2727C4.3235 51.7055 4.70385 52.05 5.16348 52.05H10.1415H18.4973H22.5861H30.942H35.0307H43.3875H47.4763H55.8322H59.21C59.6697 52.05 60.05 51.7055 60.05 51.2727C60.05 50.8399 59.6697 50.4954 59.21 50.4954ZM17.6574 50.4954H10.9814V34.9179H17.6574V50.4954ZM30.102 50.4954H23.4261V27.5339H30.102V50.4954ZM42.5476 50.4954H35.8707V18.4405H42.5476V50.4954ZM54.9922 50.4954H48.3163V11.6753H54.9922V50.4954Z" fill="#FD7E14" fill-opacity="0.75" stroke="#FD7E14" stroke-width="0.1"/>
<path d="M12.4583 21.3786C13.2865 21.3076 14.0857 21.141 14.8598 20.9151C14.8886 20.9098 14.9172 20.9111 14.9459 20.9026C14.9973 20.887 15.0357 20.8557 15.0809 20.832C17.0488 20.2151 18.8136 19.139 20.1747 17.6284C22.1039 15.4873 23.0201 12.7805 22.755 10.0072C22.7174 9.60762 22.3479 9.32613 21.8985 9.34658C21.8983 9.34658 21.8981 9.34669 21.8979 9.34669C21.8974 9.34669 21.8971 9.34658 21.8966 9.34658L13.218 10.0512L18.7811 3.87535C19.0589 3.56634 19.0125 3.10715 18.6769 2.85053C14.3869 -0.422972 8.25301 -0.292783 4.11745 2.87805C4.09104 2.89418 4.06067 2.90037 4.03595 2.91982C3.98217 2.96171 3.94868 3.0152 3.91015 3.06592C3.46252 3.4272 3.01778 3.79467 2.62574 4.22966C0.682074 6.38772 -0.232258 9.11306 0.050312 11.9042C0.332882 14.6952 1.7797 17.2172 4.12357 19.0067C6.18775 20.5839 8.73029 21.4248 11.3799 21.4248C11.7377 21.4248 12.0976 21.4098 12.4583 21.3786ZM21.1736 10.8659C21.192 12.994 20.4482 15.045 18.9574 16.6996C17.9306 17.8399 16.6262 18.6734 15.183 19.2294L12.4611 11.5733L21.1736 10.8659ZM17.0083 3.56314L11.3935 9.79638L5.70364 3.60845C9.03266 1.41635 13.5621 1.3401 17.0083 3.56314ZM1.62353 11.7692C1.38046 9.36526 2.16851 7.01733 3.84196 5.15867C4.04459 4.93365 4.28539 4.75893 4.50602 4.55679L10.3693 10.9335L4.57336 17.3678C2.90542 15.8722 1.84261 13.927 1.62353 11.7692ZM5.79007 18.2973L11.0943 12.4089L13.6819 19.6872C13.231 19.786 12.7813 19.89 12.3118 19.9304C9.96548 20.1335 7.69364 19.5307 5.79007 18.2973Z" fill="#FD7E14" fill-opacity="0.75"/>
<path d="M17.4798 8.12736C17.6196 8.36177 17.8859 8.50478 18.1723 8.50478C18.2002 8.50478 18.2282 8.5039 18.2562 8.50124L27.7232 7.5697C28.1573 7.52616 28.4707 7.1683 28.4255 6.76868C28.1313 4.22889 26.7761 1.95281 24.6078 0.358826C24.2673 0.108396 23.7705 0.160781 23.4975 0.473432L17.5549 7.3238C17.3563 7.55279 17.3264 7.86986 17.4798 8.12736ZM24.2172 1.97502C25.5165 3.11699 26.3884 4.58144 26.7356 6.20294L21.8298 6.68601L19.9712 6.86891L24.2172 1.97502Z" fill="#FD7E14" fill-opacity="0.75"/>
</svg>
