<svg width="62" height="58" viewBox="0 0 62 58" fill="none" xmlns="http://www.w3.org/2000/svg">
<path d="M10.627 23.566L15.827 18.399L15.859 18.367L15.245 17.751L10.665 22.302L8.127 19.457L8.097 19.423L7.448 20.003L10.595 23.531L10.627 23.566Z" fill="#FD7E14" fill-opacity="0.75"/>
<path d="M10.665 32.546L8.127 29.7L8.097 29.666L7.448 30.246L10.595 33.774L10.627 33.809L15.827 28.643L15.859 28.61L15.245 27.994L10.665 32.546Z" fill="#FD7E14" fill-opacity="0.75"/>
<path d="M11.653 37.176C9.43999 37.176 7.63899 38.977 7.63899 41.19C7.63899 43.404 9.43999 45.204 11.653 45.204C13.867 45.204 15.667 43.403 15.667 41.19C15.667 38.976 13.867 37.176 11.653 37.176ZM14.798 41.19C14.798 42.924 13.387 44.335 11.653 44.335C9.91899 44.335 8.50899 42.924 8.50899 41.19C8.50899 39.456 9.91999 38.045 11.653 38.045C13.387 38.045 14.798 39.456 14.798 41.19Z" fill="#FD7E14" fill-opacity="0.75"/>
<path d="M38.715 20.183H19.25V21.143H38.715V20.183Z" fill="#FD7E14" fill-opacity="0.75"/>
<path d="M38.67 30.471H19.295V31.341H38.67V30.471Z" fill="#FD7E14" fill-opacity="0.75"/>
<path d="M38.67 40.756H19.295V41.626H38.67V40.756Z" fill="#FD7E14" fill-opacity="0.75"/>
<path d="M57.953 9.87899C56.372 9.85299 54.79 9.83699 53.211 9.83899C52.433 9.84099 51.702 10.083 51.098 10.552C50.193 11.255 49.664 12.406 49.652 13.7C49.639 14.243 49.644 14.783 49.642 15.327L49.634 16.054L49.635 16.882L49.681 42.373L52.949 51.794L53.069 52.037C53.616 52.817 54.365 53.312 55.194 53.438C55.924 53.552 56.656 53.349 57.253 52.885C57.684 52.55 58.038 52.078 58.269 51.523C59.139 49.426 59.796 47.207 60.432 45.064C60.747 44.02 61.055 42.98 61.384 41.954L61.43 41.81L61.444 18.05L61.466 18.053L61.483 16.104C61.486 15.332 61.493 14.566 61.479 13.797C61.476 11.567 59.993 9.92399 57.953 9.87899ZM51.63 42.044L51.585 18.004L52.324 18.003L53.257 18.009H53.258L53.282 41.936C52.657 42.401 52.143 42.475 51.758 42.399L51.63 42.044ZM56.719 42.111C55.055 42.88 54.272 42.216 54.061 41.984L54.037 18.018L56.867 18.03L56.719 42.111ZM58.562 44.511C58.011 46.371 57.437 48.288 56.738 50.085L54.356 49.891L52.033 43.212C52.49 43.203 53.03 43.06 53.627 42.645C54.108 43.061 55.2 43.665 57.022 42.833C57.328 43.099 57.939 43.454 58.938 43.241C58.813 43.665 58.688 44.088 58.562 44.511ZM59.48 41.498C59.39 41.776 59.304 42.059 59.218 42.343C58.173 42.74 57.663 42.375 57.5 42.216C57.499 42.215 57.499 42.215 57.498 42.214L57.646 18.039L59.492 18.055L59.48 41.498ZM59.533 13.807C59.544 14.559 59.533 15.308 59.533 16.058L52.397 16.05L51.586 16.048L51.588 15.326C51.588 14.792 51.589 14.259 51.595 13.721C51.612 12.612 52.266 11.788 53.205 11.789C54.778 11.792 56.344 11.8 57.914 11.825C58.879 11.846 59.535 12.64 59.533 13.807Z" fill="#FD7E14" fill-opacity="0.75"/>
<path d="M0.478991 49.9422L0.478992 49.9423C0.48302 50.6502 0.592759 51.4135 0.806702 52.21C1.54568 54.9715 4.2761 57.943 8.52298 57.944L8.52332 57.944L8.67532 57.943L8.67586 57.943C10.8712 57.905 13.0807 57.913 15.2857 57.924C16.2448 57.928 17.2029 57.931 18.162 57.931L19.921 57.93H19.921L28.535 57.936C31.7511 57.936 34.9662 57.929 38.1815 57.898C41.9406 57.8627 45.3301 54.6624 45.5849 50.9064L45.5849 50.9063C45.712 49.0152 45.702 47.0434 45.693 45.3057L45.69 43.814C45.69 43.814 45.69 43.814 45.69 43.8139C45.7 34.432 45.705 25.0499 45.69 15.6709C45.6829 10.8962 42.2005 7.42303 37.4111 7.417H37.411H36.272H36.222V7.467V10.057V10.1081L36.2731 10.107L36.449 10.103C36.449 10.103 36.449 10.103 36.449 10.103C36.4977 10.1021 36.5465 10.101 36.5956 10.1C37.4441 10.0825 38.3594 10.0637 39.3769 10.4103C41.613 11.1749 42.95 13.1296 42.952 15.646L42.955 32.5L42.954 40.927C42.954 41.6905 42.9496 42.4539 42.9452 43.2175C42.9444 43.3449 42.9437 43.4723 42.943 43.5997L42.9425 43.6719C42.9297 45.6783 42.9166 47.7103 42.972 49.7084C43.0116 51.1659 42.4747 52.5408 41.4641 53.5812C40.4121 54.6619 38.9623 55.2589 37.3803 55.259C33.1741 55.235 28.971 55.228 24.769 55.228L8.73295 55.24C7.0894 55.24 5.69627 54.6676 4.71404 53.6882C3.73182 52.7088 3.15749 51.3195 3.15699 49.68C3.15199 38.575 3.14999 27.472 3.16899 16.3691V16.3691C3.16999 15.5036 3.19429 14.5981 3.4555 13.8016L3.4555 13.8016C4.14658 11.6927 5.65257 10.4504 7.81167 10.2037L7.81171 10.2037C8.32903 10.1441 9.07112 10.134 9.8864 10.16L9.93799 10.1616V10.11V7.468V7.41773L9.88772 7.418L8.38772 7.426L8.38765 7.426C7.79634 7.43002 7.23563 7.49337 6.71967 7.61329L6.71966 7.6133C2.97992 8.48359 0.465991 11.6568 0.465991 15.509L0.462991 36.602C0.460991 41.048 0.459991 45.4961 0.478991 49.9422Z" fill="#FD7E14" fill-opacity="0.75" stroke="#FD7E14" stroke-width="0.1"/>
<path d="M34.183 8.46299L34.181 7.70799C34.181 6.07899 34 4.83199 31.73 4.83199C31.582 4.83199 31.42 4.83499 31.249 4.83999L31.03 4.84399C29.979 4.84399 29.188 4.56699 28.614 4.00099C28.135 3.51999 27.739 2.85299 27.356 2.20599L27.304 2.11799C26.529 0.801995 25.359 0.106995 23.913 0.106995L23.811 0.107995C23.665 0.111995 23.519 0.113995 23.376 0.113995L22.601 0.109994C22.435 0.109994 22.269 0.111994 22.115 0.115994C20.753 0.139994 19.668 0.767994 18.978 1.93499C18.838 2.17099 18.707 2.40899 18.575 2.64599L18.534 2.71999C18.461 2.85299 18.387 2.98599 18.31 3.11899C17.806 4.00099 17.092 4.52399 16.134 4.71899C15.695 4.80399 15.21 4.80799 14.695 4.81299C14.488 4.81499 14.281 4.81699 14.059 4.82499C12.794 4.88599 11.998 5.69799 11.983 6.94799C11.975 7.73799 11.975 8.87699 11.983 9.65599C11.983 11.237 12.774 12.038 14.333 12.038H31.963C33.358 12.038 34.166 11.234 34.18 9.83599C34.186 9.45899 34.185 8.94299 34.183 8.46299ZM19.868 3.41699L20.491 3.60799C20.598 3.41499 20.705 3.21999 20.821 3.02599C21.13 2.50499 21.542 2.26699 22.168 2.25699C22.312 2.25199 22.457 2.25099 22.601 2.25099L23.373 2.25399C23.538 2.25399 23.703 2.25299 23.919 2.24699C24.603 2.24699 25.063 2.53399 25.46 3.20899L25.514 3.29899C25.945 4.02499 26.433 4.84599 27.103 5.51499C28.1 6.50399 29.385 6.98399 31.04 6.98399L31.303 6.97999C31.579 6.97099 31.827 6.96999 32.026 6.97499C32.038 7.15199 32.038 7.43199 32.038 7.70799L32.04 8.46699C32.042 8.93399 32.043 9.43699 32.038 9.80799C32.038 9.83999 32.037 9.86899 32.036 9.89299C32.015 9.89299 31.991 9.89399 31.963 9.89399H14.333C14.246 9.89399 14.181 9.89199 14.132 9.88999C14.129 9.83299 14.126 9.75299 14.126 9.64199C14.117 8.86499 14.117 7.74699 14.126 6.96999C14.126 6.96999 14.126 6.96799 14.126 6.96599C14.133 6.96499 14.139 6.96499 14.147 6.96499C14.335 6.95799 14.525 6.95699 14.733 6.95499C15.316 6.94799 15.918 6.94299 16.55 6.82099C18.111 6.50399 19.363 5.59199 20.169 4.18499L20.426 3.72599L19.868 3.41699Z" fill="#FD7E14" fill-opacity="0.75"/>
</svg>
