<svg width="62" height="52" viewBox="0 0 62 52" fill="none" xmlns="http://www.w3.org/2000/svg">
<path d="M7.43 21.2923H2.9V43.7732H7.43V21.2923Z" fill="#FD7E14" fill-opacity="0.75"/>
<path d="M2.9 20.3564H7.43V6.85097H6.7H3.63H2.9V7.4406H0.5C0.22 7.4406 0 7.64651 0 7.90857V18.2973C0 18.5594 0.22 18.7653 0.5 18.7653C0.78 18.7653 1 18.5594 1 18.2973V8.37653H2.9V20.3564Z" fill="#FD7E14" fill-opacity="0.75"/>
<path d="M6.19 2.30238C6.19 2.24622 6.14 2.19007 6.07 2.19007H4.25C4.19 2.19007 4.13 2.23686 4.13 2.30238V5.91505H6.19V2.30238Z" fill="#FD7E14" fill-opacity="0.75"/>
<path d="M7.16 44.7091H3.17L5.16 48.8647L7.16 44.7091Z" fill="#FD7E14" fill-opacity="0.75"/>
<path d="M8.25 49.5385H5.39C5.11 49.5385 4.89 49.7444 4.89 50.0065C4.89 50.2685 5.11 50.4744 5.39 50.4744H8.25C8.53 50.4744 8.75 50.2685 8.75 50.0065C8.75 49.7444 8.52 49.5385 8.25 49.5385Z" fill="#FD7E14" fill-opacity="0.75"/>
<path d="M59.45 25.532H57.33V2.92009C57.33 1.31029 55.93 0 54.2 0H51.21H16.31C14.59 0 13.19 1.31029 13.19 2.92009V8.93809H11.47C11.19 8.93809 10.97 9.14399 10.97 9.40605C10.97 9.66811 11.19 9.87401 11.47 9.87401H13.68C13.69 9.87401 13.69 9.87401 13.7 9.87401C13.71 9.87401 13.71 9.87401 13.72 9.87401H17.34V10.9316H11.47C11.19 10.9316 10.97 11.1375 10.97 11.3996C10.97 11.6616 11.19 11.8675 11.47 11.8675H13.2V19.3269H11.47C11.19 19.3269 10.97 19.5328 10.97 19.7948C10.97 20.0569 11.19 20.2628 11.47 20.2628H17.34V21.3204H11.47C11.19 21.3204 10.97 21.5263 10.97 21.7883C10.97 22.0504 11.19 22.2563 11.47 22.2563H13.2V29.7156H11.47C11.19 29.7156 10.97 29.9215 10.97 30.1836C10.97 30.4456 11.19 30.6516 11.47 30.6516H17.34V31.7091H11.47C11.19 31.7091 10.97 31.915 10.97 32.1771C10.97 32.4392 11.19 32.6451 11.47 32.6451H13.2V40.1044H11.47C11.19 40.1044 10.97 40.3103 10.97 40.5724C10.97 40.8344 11.19 41.0403 11.47 41.0403H13.69H17.33V42.0979H13.7C13.69 42.0979 13.69 42.0979 13.69 42.0979H13.68H11.47C11.19 42.0979 10.97 42.3038 10.97 42.5659C10.97 42.8279 11.19 43.0338 11.47 43.0338H13.2V49.0706C13.2 50.6803 14.6 52 16.32 52H41.28H59.45C60.83 52 61.94 50.9518 61.94 49.6695V27.8625C61.94 26.5803 60.83 25.532 59.45 25.532ZM14.2 49.0706V43.0338H17.34V43.8294C17.34 44.0914 17.56 44.2973 17.84 44.2973C18.12 44.2973 18.34 44.0914 18.34 43.8294V39.3369C18.34 39.0749 18.12 38.869 17.84 38.869C17.56 38.869 17.34 39.0749 17.34 39.3369V40.1044H14.2V32.6451H17.34V33.4406C17.34 33.7027 17.56 33.9086 17.84 33.9086C18.12 33.9086 18.34 33.7027 18.34 33.4406V28.9482C18.34 28.6861 18.12 28.4802 17.84 28.4802C17.56 28.4802 17.34 28.6861 17.34 28.9482V29.7156H14.2V22.2563H17.34V23.0518C17.34 23.3139 17.56 23.5198 17.84 23.5198C18.12 23.5198 18.34 23.3139 18.34 23.0518V18.5594C18.34 18.2973 18.12 18.0914 17.84 18.0914C17.56 18.0914 17.34 18.2973 17.34 18.5594V19.3269H14.2V11.8675H17.34V12.6631C17.34 12.9251 17.56 13.131 17.84 13.131C18.12 13.131 18.34 12.9251 18.34 12.6631V8.17063C18.34 7.90857 18.12 7.70266 17.84 7.70266C17.56 7.70266 17.34 7.90857 17.34 8.17063V8.93809H14.2V2.92009C14.2 1.82505 15.15 0.935925 16.32 0.935925H51.22C52.39 0.935925 53.35 1.82505 53.35 2.92009V25.532H41.28C39.91 25.532 38.79 26.5803 38.79 27.8625V49.6695C38.79 50.1937 38.98 50.671 39.3 51.0641H16.31C15.15 51.0641 14.2 50.1656 14.2 49.0706ZM42.93 45.9071H45.34C45.93 45.9071 46.42 46.3564 46.42 46.9179V47.7322C46.42 48.2937 45.93 48.743 45.34 48.743H42.93C42.34 48.743 41.85 48.2937 41.85 47.7322V46.9179C41.85 46.3564 42.34 45.9071 42.93 45.9071ZM41.85 42.9777V42.1634C41.85 41.6019 42.34 41.1526 42.93 41.1526H45.34C45.93 41.1526 46.42 41.6019 46.42 42.1634V42.9777C46.42 43.5392 45.93 43.9885 45.34 43.9885H42.93C42.34 43.9885 41.85 43.5392 41.85 42.9777ZM46.42 38.2232C46.42 38.7847 45.93 39.234 45.34 39.234H42.93C42.34 39.234 41.85 38.7847 41.85 38.2232V37.4089C41.85 36.8474 42.34 36.3888 42.93 36.3888H45.34C45.93 36.3888 46.42 36.8474 46.42 37.4089V38.2232ZM52.65 47.7322C52.65 48.2937 52.17 48.743 51.57 48.743H49.16C48.57 48.743 48.08 48.2937 48.08 47.7322V46.9179C48.08 46.3564 48.57 45.9071 49.16 45.9071H51.57C52.17 45.9071 52.65 46.3564 52.65 46.9179V47.7322ZM52.65 42.9777C52.65 43.5392 52.17 43.9885 51.57 43.9885H49.16C48.57 43.9885 48.08 43.5392 48.08 42.9777V42.1634C48.08 41.6019 48.57 41.1526 49.16 41.1526H51.57C52.17 41.1526 52.65 41.6019 52.65 42.1634V42.9777ZM52.65 38.2232C52.65 38.7847 52.17 39.234 51.57 39.234H49.16C48.57 39.234 48.08 38.7847 48.08 38.2232V37.4089C48.08 36.8474 48.57 36.3888 49.16 36.3888H51.57C52.17 36.3888 52.65 36.8474 52.65 37.4089V38.2232ZM58.88 47.7322C58.88 48.2937 58.4 48.743 57.8 48.743H55.4C54.8 48.743 54.32 48.2937 54.32 47.7322V46.9179C54.32 46.3564 54.8 45.9071 55.4 45.9071H57.8C58.4 45.9071 58.88 46.3564 58.88 46.9179V47.7322ZM58.88 42.9777C58.88 43.5392 58.4 43.9885 57.8 43.9885H55.4C54.8 43.9885 54.32 43.5392 54.32 42.9777V42.1634C54.32 41.6019 54.8 41.1526 55.4 41.1526H57.8C58.4 41.1526 58.88 41.6019 58.88 42.1634V42.9777ZM58.88 38.2232C58.88 38.7847 58.4 39.234 57.8 39.234H55.4C54.8 39.234 54.32 38.7847 54.32 38.2232V37.4089C54.32 36.8474 54.8 36.3888 55.4 36.3888H57.8C58.4 36.3888 58.88 36.8474 58.88 37.4089V38.2232ZM58.88 34.1426C58.88 34.4046 58.66 34.6105 58.38 34.6105H42.35C42.07 34.6105 41.85 34.4046 41.85 34.1426V28.9575C41.85 28.6955 42.07 28.4896 42.35 28.4896H58.38C58.66 28.4896 58.88 28.6955 58.88 28.9575V34.1426Z" fill="#FD7E14" fill-opacity="0.75"/>
<path d="M24.87 9.87401H45.92C46.2 9.87401 46.42 9.66811 46.42 9.40605C46.42 9.14399 46.2 8.93808 45.92 8.93808H24.87C24.59 8.93808 24.37 9.14399 24.37 9.40605C24.37 9.66811 24.59 9.87401 24.87 9.87401Z" fill="#FD7E14" fill-opacity="0.75"/>
<path d="M24.87 15.2462H45.92C46.2 15.2462 46.42 15.0403 46.42 14.7783C46.42 14.5162 46.2 14.3103 45.92 14.3103H24.87C24.59 14.3103 24.37 14.5162 24.37 14.7783C24.37 15.0403 24.59 15.2462 24.87 15.2462Z" fill="#FD7E14" fill-opacity="0.75"/>
<path d="M24.87 20.6278H45.92C46.2 20.6278 46.42 20.4219 46.42 20.1598C46.42 19.8978 46.2 19.6919 45.92 19.6919H24.87C24.59 19.6919 24.37 19.8978 24.37 20.1598C24.37 20.4219 24.59 20.6278 24.87 20.6278Z" fill="#FD7E14" fill-opacity="0.75"/>
<path d="M34.79 25.0734H24.87C24.59 25.0734 24.37 25.2793 24.37 25.5414C24.37 25.8035 24.59 26.0094 24.87 26.0094H34.79C35.07 26.0094 35.29 25.8035 35.29 25.5414C35.29 25.2793 35.07 25.0734 34.79 25.0734Z" fill="#FD7E14" fill-opacity="0.75"/>
<path d="M34.79 30.455H24.87C24.59 30.455 24.37 30.6609 24.37 30.923C24.37 31.185 24.59 31.3909 24.87 31.3909H34.79C35.07 31.3909 35.29 31.185 35.29 30.923C35.29 30.6609 35.07 30.455 34.79 30.455Z" fill="#FD7E14" fill-opacity="0.75"/>
<path d="M34.79 35.8272H24.87C24.59 35.8272 24.37 36.0331 24.37 36.2952C24.37 36.5572 24.59 36.7631 24.87 36.7631H34.79C35.07 36.7631 35.29 36.5572 35.29 36.2952C35.29 36.0331 35.07 35.8272 34.79 35.8272Z" fill="#FD7E14" fill-opacity="0.75"/>
<path d="M34.79 41.2088H24.87C24.59 41.2088 24.37 41.4147 24.37 41.6767C24.37 41.9388 24.59 42.1447 24.87 42.1447H34.79C35.07 42.1447 35.29 41.9388 35.29 41.6767C35.29 41.4147 35.07 41.2088 34.79 41.2088Z" fill="#FD7E14" fill-opacity="0.75"/>
</svg>
