<svg width="26" height="52" viewBox="0 0 26 52" fill="none" xmlns="http://www.w3.org/2000/svg">
<path d="M17.1931 51.0787L17.1851 51.0853L17.1773 51.0921C16.9488 51.2913 16.4768 51.3217 16.1261 51.0631C15.0496 50.2074 14.2021 49.544 13.3364 48.8662C12.327 48.076 11.2928 47.2664 9.84151 46.1097C9.58498 45.9016 9.33939 45.6094 9.16075 45.3098C8.97769 45.0028 8.91689 44.7764 8.91238 44.6796C9.41012 33.8737 11.224 23.1601 13.0524 12.3605L13.0696 12.259C13.0846 12.1943 13.162 12.0438 13.3973 11.8826C13.6261 11.7259 13.9354 11.6104 14.2605 11.5859C16.3514 11.4532 17.2375 11.4532 19.3283 11.5859C19.6543 11.6105 19.9614 11.7262 20.1818 11.8795C20.4169 12.0431 20.4665 12.1825 20.4711 12.2173L20.4724 12.2271L20.4739 12.2368C22.1419 22.8719 23.8018 33.4597 24.3012 44.1075C24.297 44.2431 24.2298 44.5074 24.0554 44.8356C23.8827 45.1609 23.6456 45.4708 23.3946 45.6867L23.3883 45.6921L23.3822 45.6977C20.7574 48.0589 19.4741 49.1983 17.1931 51.0787Z" stroke="#FD7E14" stroke-width="1.5"/>
<path d="M22.2666 1.76675C22.3509 1.86495 22.3576 1.92267 22.3585 1.93242L22.357 1.93861L22.3542 1.95374C21.9058 4.32978 21.5033 5.53765 20.6302 8.09576C20.6171 8.13375 20.5367 8.26276 20.2742 8.38424C20.0268 8.49867 19.7069 8.56061 19.3957 8.53661L19.3957 8.53655L19.3865 8.53596C17.2723 8.39902 16.364 8.39885 14.2136 8.53521C13.8699 8.54638 13.5314 8.47463 13.2741 8.35724C13.0029 8.23354 12.9241 8.11061 12.9128 8.08521C12.0435 5.53775 11.6409 4.29539 11.1928 1.88806L11.1898 1.872L11.1882 1.86489C11.189 1.85514 11.1958 1.79741 11.28 1.69923C11.3867 1.57499 11.5666 1.4565 11.7865 1.40676C13.8266 0.956332 15.3072 0.741484 16.7692 0.749482C18.2311 0.75748 19.7116 0.988503 21.7505 1.47204L21.7504 1.47209L21.759 1.47401C21.9794 1.52358 22.1598 1.64228 22.2666 1.76675Z" stroke="#FD7E14" stroke-width="1.5"/>
<path d="M0.23844 29.1035L8.88439 15.4487L8.50695 17.4468M0.23844 29.1035C-0.0117717 29.5086 -0.0117717 30.1839 0.23844 30.5891L0.989075 31.8383M0.23844 29.1035L0.872098 29.5047L0.875148 29.4999M0.23844 29.1035L0.876562 29.4976C0.876092 29.4983 0.875621 29.4991 0.875148 29.4999M0.989075 31.8383C1.23929 32.2435 1.86482 32.446 2.40694 32.311M0.989075 31.8383L1.63195 31.452L1.62815 31.4457M0.989075 31.8383L1.6272 31.4442C1.62748 31.4447 1.6278 31.4452 1.62815 31.4457M2.40694 32.311L4.03332 31.8721C4.57544 31.737 5.20097 31.2643 5.40948 30.8254L7.11926 27.5504M2.40694 32.311L2.22564 31.5832C2.22377 31.5837 2.22189 31.5842 2.22 31.5846M2.40694 32.311L2.21153 31.5869L2.22 31.5846M7.11926 27.5504C7.32777 27.1452 7.57799 26.4024 7.66139 25.9635M7.11926 27.5504L6.45441 27.2033L6.45335 27.2053C6.62704 26.867 6.85389 26.1952 6.9245 25.8239L6.92442 25.8243L7.66139 25.9635M7.11926 27.5504L6.45239 27.2072L4.74463 30.4783L4.7381 30.4908L4.73204 30.5036C4.69759 30.5761 4.58858 30.7169 4.39306 30.8653C4.20381 31.0089 4.00273 31.1068 3.85202 31.1443L3.84494 31.1461L3.8379 31.148L2.22 31.5846M7.66139 25.9635L9.59475 15.7288L8.50695 17.4468M7.66139 25.9635L6.92457 25.8235L8.50695 17.4468M8.50695 17.4468L0.875148 29.4999M2.22 31.5846C2.09578 31.6143 1.95085 31.6071 1.82387 31.5651C1.69374 31.5221 1.64009 31.4636 1.62815 31.4457M1.62815 31.4457L0.881312 30.2028L0.88136 30.2028L0.876562 30.195C0.842263 30.1394 0.800781 30.0152 0.800781 29.8463C0.800781 29.6797 0.841134 29.5565 0.875148 29.4999M9.81082 14.585L9.82989 14.484C9.91329 14.0451 9.78819 14.0113 9.53798 14.4165L9.53116 14.4272L9.53097 14.4275L9.34614 14.7194C9.41872 14.7801 9.51267 14.8335 9.63202 14.8625C9.67489 14.8729 9.71594 14.8789 9.75483 14.8814L9.8101 14.5888L9.81082 14.585Z" stroke="#FD7E14" stroke-width="1.5"/>
</svg>
