<svg width="50" height="52" viewBox="0 0 50 52" fill="none" xmlns="http://www.w3.org/2000/svg">
<path d="M38.4578 4.20028C37.1554 3.35308 37.01 1.68381 38.1688 0.680274C39.216 -0.226741 40.935 -0.226775 41.9822 0.680274C43.0295 1.58728 43.0295 3.07603 41.9822 3.98305C41.2044 4.65675 40.0234 4.85329 39.0156 4.47972L30.3621 17.4608L34.9075 24.2792H41.8663C41.9399 23.7463 42.2206 23.2686 42.6369 22.9081C43.6841 22.0011 45.4031 22.0011 46.4503 22.9081C47.4976 23.8151 47.4976 25.3039 46.4503 26.2109C45.4031 27.1179 43.6841 27.1179 42.6369 26.2109C42.2207 25.8504 41.9399 25.3726 41.8663 24.8397H34.9189L33.6826 26.6943C33.4717 27.0121 32.913 26.7341 33.1239 26.4162L34.3559 24.568L29.8228 17.7678H20.7539C19.2425 20.035 17.7313 22.3008 16.2199 24.568C17.7313 26.8353 19.2425 29.1011 20.7539 31.3683H23.322C23.7476 31.3683 23.7476 31.9288 23.322 31.9288H20.7571L10.1806 47.7946C11.4831 48.6418 11.6284 50.3111 10.4697 51.3146C9.42239 52.2216 7.70348 52.2216 6.6562 51.3146C5.6089 50.4076 5.60894 48.9189 6.6562 48.0118C7.43406 47.3382 8.61497 47.1416 9.62284 47.5152L20.1975 31.6521C18.6757 29.3691 17.1545 27.0862 15.6327 24.8033L5.37382 24.8018C5.30755 25.3482 5.02383 25.8384 4.59892 26.2064C3.55166 27.1134 1.8327 27.1134 0.785456 26.2064C-0.261818 25.2994 -0.261818 23.8106 0.785456 22.9036C1.8327 21.9966 3.55166 21.9966 4.59892 22.9036C5.00738 23.2574 5.28536 23.7241 5.36515 24.245L15.6928 24.2427C17.1991 21.9831 18.7046 19.7235 20.211 17.4639L12.8796 6.46615C11.8651 6.85766 10.6647 6.66572 9.87669 5.98321C8.82941 5.07623 8.82941 3.58743 9.87669 2.68045C10.924 1.77342 12.6429 1.77342 13.6902 2.68045C14.837 3.67369 14.7086 5.32402 13.4327 6.17959L20.784 17.2073H29.7711C32.6633 12.8687 35.5658 8.53853 38.4578 4.20028V4.20028ZM19.0889 22.4489C19.2164 22.2582 19.5516 22.4263 19.4241 22.617L18.0995 24.5929L19.3984 26.4115C19.5289 26.6005 19.2097 26.7838 19.0792 26.5949L17.6496 24.5951L19.0889 22.4489V22.4489ZM27.1694 7.30425C28.2167 8.21126 28.2167 9.70001 27.1694 10.607C26.7521 10.9685 26.1985 11.212 25.5811 11.2749V15.7268C25.5811 16.0954 24.9339 16.0954 24.9339 15.7268V11.2738C24.3207 11.2093 23.771 10.9665 23.356 10.607C22.3087 9.70001 22.3087 8.21126 23.356 7.30425C24.4032 6.39724 26.1222 6.3972 27.1694 7.30425ZM26.7119 7.70056C25.916 7.01124 24.6094 7.01125 23.8135 7.70056C23.0177 8.38985 23.0177 9.52142 23.8135 10.2107C24.6094 10.9 25.916 10.9 26.7119 10.2107C27.5077 9.52142 27.5077 8.38985 26.7119 7.70056ZM30.7098 21.0247C30.8364 21.2154 30.5011 21.3823 30.3746 21.1916L28.9499 19.0543H26.0985C25.8431 19.0543 25.8431 18.718 26.0985 18.718H29.1721L30.7098 21.0247V21.0247ZM49.2145 10.8267C50.2618 11.7337 50.2618 13.2225 49.2145 14.1295C48.1499 15.0515 46.3991 15.0337 45.3586 14.0918L34.814 20.2252C34.4619 20.4294 34.1029 19.9652 34.455 19.761L44.971 13.6442C44.3638 12.7334 44.54 11.5725 45.4011 10.8267C46.4484 9.91968 48.1673 9.91968 49.2145 10.8267V10.8267ZM48.757 11.223C47.9611 10.5337 46.6545 10.5337 45.8587 11.223C45.0628 11.9123 45.0628 13.0439 45.8587 13.7332C46.6545 14.4225 47.9611 14.4225 48.757 13.7332C49.5528 13.0439 49.5529 11.9123 48.757 11.223ZM11.4825 31.5859L15.8141 29.0738C16.1661 28.8696 16.5251 29.3337 16.1731 29.538L11.8426 32.0494C12.3719 32.9465 12.1716 34.0474 11.3466 34.7619C10.2994 35.6689 8.5804 35.669 7.53315 34.7619C6.48588 33.8549 6.48588 32.3662 7.53315 31.4591C8.63026 30.5089 10.4677 30.5671 11.4825 31.5859V31.5859ZM10.889 31.8554C10.0969 31.1694 8.78282 31.1694 7.99073 31.8554C7.19485 32.5448 7.19485 33.6763 7.99073 34.3656C8.7866 35.0549 10.0931 35.0549 10.889 34.3656C11.4993 33.8371 11.6416 33.0485 11.316 32.3986C11.217 32.201 11.0746 32.0162 10.889 31.8554ZM7.11378 48.4081C6.3179 49.0974 6.31788 50.229 7.11378 50.9183C7.90966 51.6076 9.2162 51.6076 10.0121 50.9183C10.8725 50.1732 10.7914 48.9276 9.83942 48.275C9.03984 47.7269 7.84597 47.774 7.11378 48.4081ZM4.14134 23.2999C3.34545 22.6106 2.03891 22.6106 1.24304 23.2999C0.44715 23.9892 0.44715 25.1208 1.24304 25.8101C2.03891 26.4994 3.34545 26.4994 4.14134 25.8101C4.93724 25.1208 4.93722 23.9892 4.14134 23.2999ZM13.2326 3.07675C12.4367 2.38745 11.1302 2.38745 10.3343 3.07675C9.53838 3.76603 9.53838 4.89763 10.3343 5.58691C10.9489 6.11927 11.8682 6.24048 12.6216 5.95055C13.9157 5.45255 14.25 3.95793 13.2326 3.07675V3.07675ZM45.9928 23.3044C45.1969 22.6151 43.8903 22.6151 43.0945 23.3044C42.2986 23.9937 42.2986 25.1253 43.0945 25.8146C43.8903 26.5039 45.1969 26.5039 45.9928 25.8146C46.7886 25.1253 46.7887 23.9937 45.9928 23.3044ZM41.5246 1.07658C40.7288 0.387262 39.4222 0.387274 38.6263 1.07658C37.7752 1.81369 37.8815 3.06199 38.8068 3.72421C38.9619 3.83522 39.1323 3.91225 39.3112 3.97748C40.0575 4.24956 40.9199 4.1105 41.5246 3.58675C42.3205 2.89744 42.3205 1.76587 41.5246 1.07658V1.07658ZM48.4048 44.2442L49.8362 45.8894C50.0923 46.1832 49.5765 46.5203 49.3205 46.2266L47.8575 44.5451C47.545 44.248 46.8921 44.5213 46.47 44.6283C44.7585 45.1603 41.1634 46.7946 38.5106 49.1094C38.1062 49.4623 37.9515 49.7158 38.0867 49.8948L39.4973 51.5507C39.753 51.8426 39.2398 52.1798 38.9841 51.8878L37.4911 50.1722C37.1306 49.7579 37.6232 49.1649 37.9428 48.8292C36.8077 47.576 35.394 47.1346 33.8597 46.6555C30.3979 45.5744 28.4543 44.1764 26.3512 41.587C25.1183 40.069 24.1946 37.3618 24.2156 35.4682C24.2374 33.5079 26.2215 33.5951 27.2772 34.6525C27.7397 35.1157 28.0767 35.8303 28.2944 36.8716C28.3684 37.2254 28.4906 37.5489 28.6288 37.84C28.8957 38.4025 28.9431 38.3985 28.7754 37.8014C28.6529 37.3656 28.5715 36.9144 28.4754 36.475C27.8372 33.5575 26.7694 30.4196 25.6842 27.5895C24.5171 24.5457 28.3561 23.2487 29.6514 26.6823C30.0448 27.7252 30.5991 28.9409 31.0505 29.9656C32.2019 29.6737 33.3108 29.9321 34.201 30.6128C35.4361 30.0118 37.1578 30.7766 37.9647 31.6515C42.0578 30.7754 43.1379 36.2688 43.762 38.0406C44.4884 40.2756 45.2438 42.5991 46.5216 44.026C47.1705 43.856 47.9295 43.6978 48.4048 44.2442V44.2442ZM38.3839 48.4113C40.1981 46.8329 43.5111 45.0257 45.8822 44.2201C44.6064 42.7023 43.8594 40.4046 43.1401 38.1917C42.0434 34.8178 41.014 31.6518 38.3506 32.1368C38.7401 32.6906 39.0562 33.3129 39.2379 33.942C39.341 34.2991 38.714 34.4349 38.6109 34.0778C38.4189 33.4128 38.0281 32.6738 37.5643 32.1197C36.9725 31.413 35.7006 30.7202 34.6694 31.0389C35.3966 31.8339 35.916 32.9723 36.2084 33.9451C36.3148 34.3008 35.6903 34.4409 35.5839 34.0852C35.3134 33.1851 34.7311 31.8738 33.9773 31.2002C33.2468 30.5473 32.3099 30.2467 31.28 30.4915C31.7941 31.6722 32.3252 32.8986 32.7003 34.0623C32.8134 34.4166 32.1915 34.5654 32.0784 34.2112C31.2862 31.7537 29.9466 29.2661 29.0371 26.8553C28.0259 24.1747 25.3878 25.0458 26.296 27.4143C27.392 30.2727 28.4652 33.4247 29.1099 36.3721C29.3958 37.6789 29.6987 39.0631 30.1662 40.0116C30.3325 40.35 29.7384 40.5689 29.5721 40.2305C29.5116 40.1077 29.4538 39.9787 29.3985 39.8444C29.2008 39.3643 29.2451 39.5348 28.8655 39.1867C28.6596 38.9978 28.4607 38.7638 28.2837 38.4923C28.0084 38.0702 27.7817 37.5529 27.6599 36.9702C27.464 36.0331 27.1759 35.4054 26.7893 35.0182C26.1093 34.3371 24.8753 34.1171 24.8602 35.4726C24.8405 37.2461 25.7253 39.8439 26.8796 41.2651C28.9032 43.7567 30.7468 45.09 34.0771 46.13C35.6758 46.6292 37.1509 47.0899 38.3839 48.4113V48.4113Z" fill="#FD7E14"/>
</svg>
