<svg width="52" height="50" viewBox="0 0 52 50" fill="none" xmlns="http://www.w3.org/2000/svg">
<path d="M48.3572 0H46.9118H14.048C10.3922 0 7.42297 2.86163 7.42297 6.37107V39.8176L5.83373 41.3459L3.23733 38.8428L0 41.9748V46.4969C0 48.4277 1.63501 50 3.64281 50H39.4889H40.9342C42.942 50 44.577 48.4277 44.577 46.4969V25.6289H48.3572C50.365 25.6289 52 24.0566 52 22.1258V3.49686C51.9935 1.56604 50.365 0 48.3572 0ZM3.63627 48.7421C2.34788 48.7421 1.30147 47.7358 1.30147 46.4969V42.4906L3.23079 40.6226L5.36285 42.673C5.49365 42.7987 5.65715 42.8553 5.82719 42.8553C5.99723 42.8553 6.16073 42.7925 6.29154 42.673L8.42359 40.6289L10.523 42.6478C10.5295 42.6541 10.536 42.6541 10.5426 42.6604C10.5491 42.6667 10.5491 42.673 10.5557 42.6792C10.6865 42.805 10.85 42.8616 11.02 42.8616C11.19 42.8616 11.3535 42.7987 11.4843 42.6792L13.6099 40.6352L15.7092 42.6541C15.7158 42.6604 15.7223 42.6604 15.7288 42.6667C15.7354 42.673 15.7354 42.6792 15.7419 42.6855C15.8727 42.8113 16.0362 42.8679 16.2063 42.8679C16.3763 42.8679 16.5398 42.805 16.6706 42.6855L18.7961 40.6415L20.8955 42.6604C20.902 42.6667 20.9086 42.6667 20.9151 42.673C20.9216 42.6792 20.9216 42.6855 20.9282 42.6918C21.059 42.8176 21.2225 42.8742 21.3925 42.8742C21.5626 42.8742 21.7261 42.8113 21.8569 42.6918L23.9824 40.6478L26.0818 42.6667C26.0883 42.673 26.0948 42.673 26.1014 42.6792C26.1079 42.6855 26.1079 42.6918 26.1145 42.6981C26.2453 42.8239 26.4088 42.8805 26.5788 42.8805C26.7488 42.8805 26.9123 42.8176 27.0431 42.6981L29.1687 40.6541L31.268 42.673C31.2746 42.6792 31.2811 42.6792 31.2876 42.6855C31.2942 42.6918 31.2942 42.6981 31.3007 42.7044C31.5558 42.9497 31.9678 42.9497 32.2229 42.7044L34.3091 40.6981L35.8591 42.4843V46.522C35.8591 47.3774 36.1796 48.1572 36.7093 48.7673H3.63627V48.7421ZM40.9342 48.7421H39.4889C38.2005 48.7421 37.1541 47.7358 37.1541 46.4969V42.2327C37.1541 42.2013 37.141 42.1761 37.1344 42.1509C37.1279 42.1069 37.1214 42.0629 37.1083 42.0189C37.0952 41.9748 37.069 41.9434 37.0429 41.9057C37.0298 41.8805 37.0233 41.8553 36.9971 41.8302L34.3811 38.8113L31.7454 41.3459L29.1556 38.8553L26.5657 41.3459L23.9759 38.8553L21.386 41.3459L18.7961 38.8553L16.2063 41.3459L13.6164 38.8553L11.0265 41.3459L8.73752 39.1447V6.37107C8.73752 3.54717 11.1246 1.25786 14.0546 1.25786H44.1127L44.1062 1.26415C43.9884 1.40252 43.8838 1.54717 43.7857 1.69811C43.7726 1.72327 43.753 1.74843 43.7399 1.77358C43.6483 1.92453 43.5764 2.08176 43.511 2.24528C43.4979 2.27673 43.4848 2.30818 43.4783 2.33333C43.4194 2.49686 43.3671 2.67296 43.3344 2.84906C43.3279 2.87421 43.3279 2.89937 43.3213 2.92453C43.2886 3.11321 43.269 3.30189 43.269 3.49686V25V46.5031C43.2625 47.7358 42.2161 48.7421 40.9342 48.7421ZM50.6854 22.1258C50.6854 23.3648 49.639 24.3711 48.3506 24.3711H44.5705V3.49686C44.5705 2.25786 45.6169 1.25157 46.9053 1.25157H48.3506C49.639 1.25157 50.6854 2.25786 50.6854 3.49686V22.1258V22.1258Z" fill="#FD7E14"/>
<path d="M21.1442 4.78597V8.06899C21.1442 8.25767 21.19 8.39603 21.275 8.49037C21.3666 8.58471 21.4778 8.62873 21.6217 8.62873C21.759 8.62873 21.8767 8.58471 21.9618 8.49037C22.0468 8.39603 22.0926 8.25767 22.0926 8.06899V4.78597H23.1324C23.2959 4.78597 23.4136 4.75452 23.4987 4.68534C23.5837 4.61616 23.6229 4.52811 23.6229 4.4149C23.6229 4.30169 23.5837 4.20735 23.5052 4.13817C23.4267 4.06899 23.3025 4.03125 23.139 4.03125H20.1109C19.954 4.03125 19.8362 4.0627 19.7512 4.13188C19.6662 4.20106 19.627 4.28911 19.627 4.40861C19.627 4.52182 19.6662 4.60987 19.7447 4.67905C19.8232 4.74823 19.9474 4.77968 20.1044 4.77968H21.1442V4.78597Z" fill="#FD7E14"/>
<path d="M23.4604 8.01896C23.4408 8.08185 23.4277 8.15103 23.4277 8.20764C23.4277 8.31456 23.4735 8.4089 23.5651 8.49695C23.6566 8.57871 23.7613 8.62273 23.8855 8.62273C24.0294 8.62273 24.1275 8.585 24.1929 8.50324C24.2518 8.42147 24.3303 8.27053 24.4153 8.04412L24.6376 7.4655H26.5473L26.7697 8.03154C26.8024 8.10072 26.8351 8.18248 26.8743 8.27053C26.9136 8.36487 26.9528 8.42776 26.9921 8.47179C27.0313 8.51581 27.0705 8.55355 27.1294 8.57871C27.1883 8.60386 27.2471 8.61644 27.3191 8.61644C27.4499 8.61644 27.5545 8.57242 27.6461 8.48437C27.7376 8.39632 27.7834 8.30198 27.7834 8.19506C27.7834 8.09443 27.7376 7.93091 27.6395 7.71078L26.41 4.79254C26.3511 4.64789 26.3054 4.52839 26.2661 4.44034C26.2269 4.35229 26.1811 4.27053 26.1288 4.19506C26.0765 4.11959 26.0045 4.05669 25.913 4.00638C25.8214 3.95607 25.7168 3.93091 25.5794 3.93091C25.4486 3.93091 25.3374 3.95607 25.2524 4.00638C25.1609 4.05669 25.0954 4.11959 25.0366 4.19506C24.9777 4.27053 24.9319 4.37116 24.8796 4.49066C24.8338 4.61015 24.7881 4.71078 24.7554 4.79254L23.552 7.72336C23.5193 7.86173 23.4866 7.95606 23.4604 8.01896ZM25.586 4.91833L26.2923 6.77996H24.8862L25.586 4.91833Z" fill="#FD7E14"/>
<path d="M28.0762 8.22649C28.0762 8.35857 28.1154 8.45291 28.1874 8.52209C28.2658 8.59127 28.3574 8.62272 28.4751 8.62272C28.5471 8.62272 28.6125 8.61014 28.6713 8.59127C28.7236 8.56612 28.776 8.54096 28.8152 8.49693C28.8544 8.45291 28.8937 8.41517 28.9198 8.37744C28.946 8.33341 28.9983 8.26423 29.0637 8.1636L29.9401 6.87429L30.7641 8.12587C30.8688 8.27681 30.9407 8.38373 30.98 8.43404C31.0192 8.48436 31.0715 8.53467 31.1304 8.56612C31.1892 8.60385 31.2677 8.62272 31.3593 8.62272C31.4443 8.62272 31.5162 8.60385 31.5816 8.57241C31.647 8.53467 31.6994 8.49064 31.7386 8.42775C31.7778 8.36486 31.7909 8.30197 31.7909 8.23278C31.7909 8.15731 31.7713 8.07555 31.7321 7.99379C31.6928 7.90574 31.6274 7.79882 31.5359 7.67304L30.5418 6.19505L31.4705 4.86171C31.634 4.62272 31.719 4.44033 31.719 4.30197C31.719 4.20763 31.6797 4.12587 31.6078 4.05668C31.5359 3.9875 31.4312 3.95605 31.3135 3.95605C31.2481 3.95605 31.1892 3.96863 31.1369 3.9875C31.0846 4.00637 31.0388 4.0441 30.9996 4.08184C30.9603 4.11958 30.9211 4.18247 30.8753 4.24536C30.8295 4.30826 30.7772 4.39002 30.7184 4.48436L29.9662 5.5787L29.2599 4.48436C29.1291 4.2831 29.0245 4.14473 28.9525 4.06926C28.8806 3.99379 28.776 3.95605 28.6452 3.95605C28.5274 3.95605 28.4293 3.9875 28.3509 4.05668C28.2724 4.12587 28.2331 4.20134 28.2331 4.28939C28.2331 4.37115 28.2528 4.4592 28.2985 4.55354C28.3378 4.64788 28.4032 4.7548 28.4882 4.88058L29.3711 6.19505L28.3182 7.67304C28.1547 7.88687 28.0762 8.07555 28.0762 8.22649Z" fill="#FD7E14"/>
<path d="M16.3771 10.9434H11.2497C10.89 10.9434 10.5957 11.2264 10.5957 11.5723C10.5957 11.9182 10.89 12.2012 11.2497 12.2012H16.3771C16.7368 12.2012 17.0311 11.9182 17.0311 11.5723C17.0311 11.2264 16.7368 10.9434 16.3771 10.9434Z" fill="#FD7E14"/>
<path d="M40.5735 10.9434H20.404C20.0443 10.9434 19.75 11.2264 19.75 11.5723C19.75 11.9182 20.0443 12.2012 20.404 12.2012H40.5735C40.9332 12.2012 41.2276 11.9182 41.2276 11.5723C41.2276 11.2264 40.9332 10.9434 40.5735 10.9434Z" fill="#FD7E14"/>
<path d="M16.3771 15.0188H11.2497C10.89 15.0188 10.5957 15.3018 10.5957 15.6477C10.5957 15.9936 10.89 16.2767 11.2497 16.2767H16.3771C16.7368 16.2767 17.0311 15.9936 17.0311 15.6477C17.0311 15.3018 16.7368 15.0188 16.3771 15.0188Z" fill="#FD7E14"/>
<path d="M40.5735 15.0188H20.404C20.0443 15.0188 19.75 15.3018 19.75 15.6477C19.75 15.9936 20.0443 16.2767 20.404 16.2767H40.5735C40.9332 16.2767 41.2276 15.9936 41.2276 15.6477C41.2276 15.3018 40.9332 15.0188 40.5735 15.0188Z" fill="#FD7E14"/>
<path d="M16.3771 19.0945H11.2497C10.89 19.0945 10.5957 19.3775 10.5957 19.7234C10.5957 20.0693 10.89 20.3523 11.2497 20.3523H16.3771C16.7368 20.3523 17.0311 20.0693 17.0311 19.7234C17.0311 19.3775 16.7368 19.0945 16.3771 19.0945Z" fill="#FD7E14"/>
<path d="M40.5735 19.0945H20.404C20.0443 19.0945 19.75 19.3775 19.75 19.7234C19.75 20.0693 20.0443 20.3523 20.404 20.3523H40.5735C40.9332 20.3523 41.2276 20.0693 41.2276 19.7234C41.2276 19.3775 40.9332 19.0945 40.5735 19.0945Z" fill="#FD7E14"/>
<path d="M16.3771 23.1699H11.2497C10.89 23.1699 10.5957 23.4529 10.5957 23.7989C10.5957 24.1448 10.89 24.4278 11.2497 24.4278H16.3771C16.7368 24.4278 17.0311 24.1448 17.0311 23.7989C17.0311 23.4529 16.7368 23.1699 16.3771 23.1699Z" fill="#FD7E14"/>
<path d="M16.3771 27.2454H11.2497C10.89 27.2454 10.5957 27.5284 10.5957 27.8743C10.5957 28.2202 10.89 28.5032 11.2497 28.5032H16.3771C16.7368 28.5032 17.0311 28.2202 17.0311 27.8743C17.0311 27.5284 16.7368 27.2454 16.3771 27.2454Z" fill="#FD7E14"/>
<path d="M16.3771 31.3269H11.2497C10.89 31.3269 10.5957 31.6099 10.5957 31.9558C10.5957 32.3017 10.89 32.5848 11.2497 32.5848H16.3771C16.7368 32.5848 17.0311 32.3017 17.0311 31.9558C17.0311 31.6099 16.7368 31.3269 16.3771 31.3269Z" fill="#FD7E14"/>
<path d="M16.3771 35.4026H11.2497C10.89 35.4026 10.5957 35.6856 10.5957 36.0315C10.5957 36.3774 10.89 36.6604 11.2497 36.6604H16.3771C16.7368 36.6604 17.0311 36.3774 17.0311 36.0315C17.0311 35.6856 16.7368 35.4026 16.3771 35.4026Z" fill="#FD7E14"/>
<path d="M40.5735 23.1699H20.404C20.0443 23.1699 19.75 23.4529 19.75 23.7989C19.75 24.1448 20.0443 24.4278 20.404 24.4278H40.5735C40.9332 24.4278 41.2276 24.1448 41.2276 23.7989C41.2276 23.4529 40.9332 23.1699 40.5735 23.1699Z" fill="#FD7E14"/>
<path d="M30.4888 27.2454H20.404C20.0443 27.2454 19.75 27.5284 19.75 27.8743C19.75 28.2202 20.0443 28.5032 20.404 28.5032H30.4888C30.8485 28.5032 31.1428 28.2202 31.1428 27.8743C31.1428 27.5284 30.8485 27.2454 30.4888 27.2454Z" fill="#FD7E14"/>
<path d="M30.4888 31.3269H20.404C20.0443 31.3269 19.75 31.6099 19.75 31.9558C19.75 32.3017 20.0443 32.5848 20.404 32.5848H30.4888C30.8485 32.5848 31.1428 32.3017 31.1428 31.9558C31.1428 31.6099 30.8485 31.3269 30.4888 31.3269Z" fill="#FD7E14"/>
<path d="M30.4888 35.4026H20.404C20.0443 35.4026 19.75 35.6856 19.75 36.0315C19.75 36.3774 20.0443 36.6604 20.404 36.6604H30.4888C30.8485 36.6604 31.1428 36.3774 31.1428 36.0315C31.1428 35.6856 30.8485 35.4026 30.4888 35.4026Z" fill="#FD7E14"/>
<path d="M37.5274 31.7673C37.3181 31.5849 37.0892 31.4465 36.8276 31.3522C36.566 31.2578 36.2129 31.1509 35.7747 31.0314V28.8931C36.2259 29.0314 36.5072 29.3145 36.6249 29.7484C36.7295 30.1132 36.9519 30.2956 37.305 30.2956C37.4882 30.2956 37.6451 30.2327 37.7759 30.1069C37.9067 29.9811 37.9721 29.8365 37.9721 29.6604C37.9721 29.5094 37.9264 29.3396 37.8413 29.1509C37.7563 28.9622 37.6321 28.7862 37.4686 28.61C37.2658 28.3836 37.0304 28.2075 36.7557 28.0943C36.481 27.9811 36.154 27.9056 35.7747 27.8679V27.3145C35.7747 27.0314 35.6635 26.8931 35.4346 26.8931C35.2122 26.8931 35.101 27.0377 35.101 27.327V27.8742C34.362 27.9371 33.7996 28.1572 33.4137 28.5346C33.0213 28.9119 32.8316 29.3962 32.8316 29.9811C32.8316 30.4339 32.9297 30.805 33.1325 31.088C33.3352 31.3711 33.5903 31.5975 33.9108 31.7547C34.2312 31.9119 34.6302 32.0503 35.1076 32.1761V34.566C34.8656 34.5031 34.6759 34.4088 34.5321 34.283C34.3882 34.1572 34.277 34.0251 34.2116 33.8742C34.1397 33.7233 34.0546 33.5094 33.9631 33.2327C33.9173 33.1006 33.8454 33 33.7342 32.9308C33.623 32.8616 33.4857 32.8239 33.3287 32.8239C33.1325 32.8239 32.9625 32.8868 32.8316 33.0189C32.7008 33.1509 32.6289 33.3019 32.6289 33.4654C32.6289 33.6855 32.6812 33.9119 32.7793 34.1446C32.8774 34.3773 33.0344 34.5975 33.2437 34.8113C33.453 35.0251 33.7146 35.2012 34.0219 35.3459C34.3359 35.4905 34.6956 35.5849 35.1141 35.6289V37.0189C35.1141 37.1761 35.1403 37.2956 35.1926 37.3711C35.2449 37.4465 35.3365 37.4843 35.4608 37.4843C35.5981 37.4843 35.6897 37.4402 35.7289 37.3459C35.7681 37.2516 35.7878 37.1069 35.7878 36.9056V35.6289C36.2979 35.5849 36.7361 35.4591 37.1088 35.2453C37.4816 35.0314 37.7563 34.7484 37.9525 34.4088C38.1422 34.0692 38.2403 33.7044 38.2403 33.3145C38.2403 33 38.1814 32.717 38.0637 32.4528C37.9133 32.1824 37.7432 31.956 37.5274 31.7673ZM35.088 30.8428C34.7675 30.7295 34.5255 30.6038 34.3751 30.4654C34.2181 30.327 34.1397 30.1195 34.1397 29.849C34.1397 29.566 34.2247 29.3522 34.3882 29.2138C34.5582 29.0755 34.7871 28.9622 35.088 28.8742V30.8428ZM36.5987 34.2012C36.4025 34.4088 36.1278 34.5472 35.7681 34.6163V32.3648C36.1409 32.478 36.4156 32.6163 36.6118 32.7799C36.808 32.9434 36.8996 33.1698 36.8996 33.4717C36.893 33.7547 36.7949 33.9937 36.5987 34.2012Z" fill="#FD7E14"/>
</svg>
