<svg width="45" height="52" viewBox="0 0 45 52" fill="none" xmlns="http://www.w3.org/2000/svg">
<path d="M20.8356 5.19522H19.1687V6.92873H20.8356V5.19522Z" fill="#FD7E14" fill-opacity="0.75"/>
<path d="M35.0038 27.7309H36.6706V11.2625C36.6706 10.7858 36.2956 10.3958 35.8372 10.3958H31.6701V12.1293H35.0038V27.7309Z" fill="#FD7E14" fill-opacity="0.75"/>
<path d="M27.503 13.8628H12.5014V15.5963H27.503V13.8628Z" fill="#FD7E14" fill-opacity="0.75"/>
<path d="M6.66739 18.1966V26.8641C6.66739 27.3408 7.04243 27.7309 7.50081 27.7309H32.5035C32.9619 27.7309 33.337 27.3408 33.337 26.8641V18.1966C33.337 17.7198 32.9619 17.3298 32.5035 17.3298H7.50081C7.04243 17.3298 6.66739 17.7198 6.66739 18.1966ZM25.0027 19.0633H31.6701V21.6636H25.0027V19.0633ZM25.0027 23.3971H31.6701V25.9974H25.0027V23.3971ZM16.6685 19.0633H23.3359V21.6636H16.6685V19.0633ZM16.6685 23.3971H23.3359V25.9974H16.6685V23.3971ZM8.33424 19.0633H15.0016V21.6636H8.33424V19.0633ZM8.33424 23.3971H15.0016V25.9974H8.33424V23.3971Z" fill="#FD7E14" fill-opacity="0.75"/>
<path d="M42.8692 16.8314C41.5045 16.6256 40.2335 17.6115 40.0356 19.0308L40.0043 19.215V9.529C40.0043 8.09886 38.8792 6.92874 37.5041 6.92874H29.6595C29.3365 6.35451 28.8052 5.92114 28.1906 5.73695L25.034 4.79435C24.4297 4.621 23.9818 4.10095 23.8568 3.47255L23.8151 3.24503C23.3984 1.05647 21.3461 -0.362839 19.2417 0.0813732C17.6998 0.406406 16.5018 1.65237 16.1997 3.24503L16.158 3.47255C16.033 4.11178 15.585 4.621 14.9808 4.79435L11.8138 5.73695C11.1991 5.92114 10.6678 6.35451 10.3449 6.92874H2.50027C1.12512 6.92874 0 8.09886 0 9.529V49.3997C0 50.8299 1.12512 52 2.50027 52H38.0354C38.275 52 38.4938 51.8917 38.65 51.7183L40.6607 49.3997C40.7753 49.2697 40.8378 49.118 40.869 48.9447L44.9736 19.7892C45.1716 18.3591 44.234 17.0373 42.8692 16.8314ZM11.6679 8.2397C11.6679 7.84966 11.918 7.5138 12.2722 7.40545L15.4288 6.46286C16.6268 6.10532 17.5436 5.08688 17.7832 3.80842L17.8249 3.5809C18.0645 2.33494 19.2313 1.52235 20.4293 1.77155C21.3044 1.95573 21.992 2.6708 22.1691 3.5809L22.2107 3.80842C22.4504 5.08688 23.3671 6.10532 24.5652 6.46286L27.7218 7.40545C28.076 7.5138 28.326 7.84966 28.326 8.2397V10.3958H11.6679V8.2397ZM2.50027 50.2665C2.04189 50.2665 1.66685 49.8765 1.66685 49.3997V9.529C1.66685 9.05229 2.04189 8.66225 2.50027 8.66225H10.0011V11.2625C10.0011 11.7392 10.3761 12.1293 10.8345 12.1293H29.1698C29.6282 12.1293 30.0033 11.7392 30.0033 11.2625V8.66225H37.5041C37.9625 8.66225 38.3375 9.05229 38.3375 9.529V31.057L36.1185 46.7995H35.0038V36.3984H33.337V46.7995H31.6701V38.1319H30.0033V46.7995H28.3364V38.9987H26.6696V46.7995H25.0027V41.5989H23.3359V46.7995H21.5232C21.6169 46.5178 21.669 46.2252 21.669 45.9327V39.3562L25.8361 35.0224L27.7426 37.0051C28.0655 37.341 28.5969 37.341 28.9198 37.0051L33.3265 32.4222V34.6649H34.9934V30.3311C34.9934 29.8544 34.6183 29.4644 34.16 29.4644H29.9928V31.1979H32.1493L28.3364 35.1741L26.43 33.1914C26.107 32.8555 25.5757 32.8555 25.2527 33.1914L21.169 37.4385C20.7002 36.7884 19.9605 36.4092 19.1792 36.4092H17.5123V35.5425C17.5123 33.6248 16.0226 32.0755 14.1786 32.0755C12.3347 32.0755 10.8449 33.6248 10.8449 35.5425V36.4092H9.17808C7.80293 36.4092 6.67781 37.5794 6.67781 39.0095V45.9436C6.67781 46.2361 6.7299 46.5286 6.82366 46.8103H5.00054V12.1293H8.33424V10.3958H4.16712C3.70874 10.3958 3.3337 10.7858 3.3337 11.2625V47.6662C3.3337 48.1429 3.70874 48.533 4.16712 48.533H35.9518C35.9622 48.5872 35.9831 48.6305 36.0039 48.6847L36.7227 50.2665H2.50027ZM8.33424 39.4104V38.9987C8.33424 38.522 8.70928 38.1319 9.16766 38.1319H19.1687C19.6271 38.1319 20.0022 38.522 20.0022 38.9987V39.4104C16.2934 41.1547 12.043 41.1547 8.33424 39.4104ZM20.0022 41.2956V45.9327C20.0022 46.4094 19.6271 46.7995 19.1687 46.7995H9.16766C8.70928 46.7995 8.33424 46.4094 8.33424 45.9327V41.2956C12.0846 42.8449 16.2518 42.8449 20.0022 41.2956ZM12.5014 36.3984V35.5317C12.5014 34.5782 13.2514 33.7981 14.1682 33.7981C15.085 33.7981 15.8351 34.5782 15.8351 35.5317V36.3984H12.5014ZM39.2647 48.4246L38.2542 49.5839L37.6083 48.1754L40.0043 31.1979V31.187L41.192 22.7145L42.838 22.9637L39.2647 48.4246ZM43.3276 19.5292L43.088 21.241L41.442 20.9918L41.6816 19.28C41.7441 18.8033 42.1712 18.4782 42.6296 18.5433C43.088 18.6083 43.4005 19.0525 43.3276 19.5292Z" fill="#FD7E14" fill-opacity="0.75"/>
</svg>
