<svg width="53" height="52" viewBox="0 0 53 52" fill="none" xmlns="http://www.w3.org/2000/svg">
<path d="M6.74662 5.68645L11.1691 1.39518V9.87155H2.43361L6.74662 5.68645Z" stroke="#FD7E14" stroke-width="0.7"/>
<path d="M36.0967 49.9162H36.4467V49.5662V45.9157V45.5657H36.0967H32.3346H31.9846V45.9157V49.5662V49.9162H32.3346H36.0967ZM36.0967 44.1565H36.4467V43.8065V40.1559V39.8059H36.0967H32.3346H31.9846V40.1559V43.8065V44.1565H32.3346H36.0967ZM36.0967 38.3156H36.4467V37.9656V34.315V33.965H36.0967H32.3346H31.9846V34.315V37.9656V38.3156H32.3346H36.0967ZM43.4538 49.9162H43.8038V49.5662V45.9157V45.5657H43.4538H39.6917H39.3417V45.9157V49.5662V49.9162H39.6917H43.4538ZM43.4538 44.1565H43.8038V43.8065V40.1559V39.8059H43.4538H39.6917H39.3417V40.1559V43.8065V44.1565H39.6917H43.4538ZM43.4538 38.3156H43.8038V37.9656V34.315V33.965H43.4538H39.6917H39.3417V34.315V37.9656V38.3156H39.6917H43.4538ZM50.8108 49.9162H51.1608V49.5662V40.1559V39.8059H50.8108H47.0487H46.6987V40.1559V49.5662V49.9162H47.0487H50.8108ZM50.8108 38.3156H51.1608V37.9656V34.315V33.965H50.8108H47.0487H46.6987V34.315V37.9656V38.3156H47.0487H50.8108ZM50.8108 32.0691H51.1608V31.7191V26.4461V26.0961H50.8108H32.4182H32.0682V26.4461V31.7191V32.0691H32.4182H50.8108ZM31.6658 24.4435H51.5633C52.1474 24.4435 52.5509 24.8788 52.5509 25.3104V50.702C52.5509 51.2289 52.1324 51.6499 51.5633 51.6499H31.6658C31.0966 51.6499 30.6781 51.2289 30.6781 50.702V25.3915C30.6781 24.8645 31.0966 24.4435 31.6658 24.4435Z" stroke="#FD7E14" stroke-width="0.7"/>
<mask id="path-3-inside-1_429:17" fill="white">
<path d="M29.409 27.0141V25.3105C29.409 24.986 29.4926 24.6615 29.5762 24.4181V21.3354C29.5762 21.0921 29.7434 20.9298 29.9942 20.9298C30.245 20.9298 30.4122 21.0921 30.4122 21.3354V23.5258C30.7466 23.3635 31.081 23.2013 31.4991 23.2013H37.7693V0H12.354V10.6272C12.354 10.8705 12.1868 11.0328 11.936 11.0328H0.900391V51.9189H29.827C29.5762 51.5944 29.409 51.1077 29.409 50.6209V43.4821H5.16414C4.91333 43.4821 4.74613 43.3199 4.74613 43.0765C4.74613 42.8331 4.91333 42.6709 5.16414 42.6709H29.409V38.3713H5.16414C4.91333 38.3713 4.74613 38.2091 4.74613 37.9657C4.74613 37.7223 4.91333 37.5601 5.16414 37.5601H29.409V33.2606H5.16414C4.91333 33.2606 4.74613 33.0983 4.74613 32.8549C4.74613 32.6116 4.99693 32.4493 5.24774 32.4493H29.4926V27.8253H27.4025H24.6436H21.8847H19.1258H16.3669H13.608H10.8491H8.09024H5.66576C5.41495 27.8253 5.24774 27.663 5.24774 27.4197C5.24774 27.1763 5.41495 27.0141 5.66576 27.0141H7.67223V21.3354C7.67223 21.0921 7.83943 20.9298 8.09024 20.9298C8.34105 20.9298 8.50826 21.0921 8.50826 21.3354V27.0141H10.3475V18.4961C10.3475 18.2527 10.5147 18.0905 10.7655 18.0905C11.0163 18.0905 11.1836 18.2527 11.1836 18.4961V27.0141H13.0228V21.3354C13.0228 21.0921 13.19 20.9298 13.4408 20.9298C13.6916 20.9298 13.8588 21.0921 13.8588 21.3354V27.0141H15.6981V22.9579C15.6981 22.7145 15.8653 22.5523 16.1161 22.5523C16.3669 22.5523 16.5341 22.7145 16.5341 22.9579V27.0141H18.3734V21.3354C18.3734 21.0921 18.5406 20.9298 18.7914 20.9298C19.0422 20.9298 19.2094 21.0921 19.2094 21.3354V27.0141H21.0487V18.4961C21.0487 18.2527 21.2159 18.0905 21.4667 18.0905C21.7175 18.0905 21.8847 18.2527 21.8847 18.4961V27.0141H23.724V21.3354C23.724 21.0921 23.8912 20.9298 24.142 20.9298C24.3928 20.9298 24.56 21.0921 24.56 21.3354V27.0141H26.9009V21.3354C26.9009 21.0921 27.0681 20.9298 27.3189 20.9298C27.5697 20.9298 27.7369 21.0921 27.7369 21.3354V27.0141H29.409ZM16.7849 2.67707H35.3448C35.5956 2.67707 35.7628 2.83932 35.7628 3.08269C35.7628 3.32606 35.5956 3.4883 35.3448 3.4883H16.7849C16.5341 3.4883 16.3669 3.32606 16.3669 3.08269C16.3669 2.83932 16.5341 2.67707 16.7849 2.67707ZM16.7849 6.57099H26.9009C27.1517 6.57099 27.3189 6.73324 27.3189 6.97661C27.3189 7.21998 27.1517 7.38222 26.9009 7.38222H16.7849C16.5341 7.38222 16.3669 7.21998 16.3669 6.97661C16.3669 6.73324 16.5341 6.57099 16.7849 6.57099ZM27.5697 19.4696C27.4025 19.5507 27.1517 19.5507 27.0681 19.4696L21.6339 15.0078L16.4505 20.2808C16.3669 20.362 16.2833 20.4431 16.1161 20.4431C16.0325 20.4431 15.9489 20.4431 15.8653 20.362L10.4311 15.9002L6.00017 19.6318C5.83296 19.7941 5.58216 19.7941 5.41495 19.6318C5.16414 19.4696 5.16414 19.1451 5.41495 18.9829L10.0131 14.8456C10.1803 14.6833 10.4311 14.6833 10.5983 14.8456L16.0325 19.3073L21.2159 14.0343C21.3831 13.8721 21.6339 13.8721 21.8011 14.0343L27.3189 18.5772L35.2612 13.2231L33.0875 13.142C32.8367 13.142 32.6695 12.9797 32.6695 12.7364C32.6695 12.493 32.8367 12.3307 33.0875 12.3307L36.5988 12.4119C36.6824 12.4119 36.6824 12.4119 36.766 12.4119C36.766 12.4119 36.766 12.4119 36.8497 12.4119C36.9333 12.4119 36.9333 12.493 37.0169 12.493C37.0169 12.5741 37.1005 12.5741 37.1005 12.6552C37.1005 12.6552 37.1005 12.6552 37.1005 12.7364C37.1005 12.8175 37.1005 12.8175 37.1005 12.8986L35.7628 16.0624C35.6792 16.2247 35.512 16.3058 35.3448 16.3058C35.2612 16.3058 35.2612 16.3058 35.1776 16.3058C34.9268 16.2247 34.8432 15.9813 34.9268 15.7379L35.6792 13.9532L27.5697 19.4696Z"/>
</mask>
<path d="M29.409 27.0141V25.3105C29.409 24.986 29.4926 24.6615 29.5762 24.4181V21.3354C29.5762 21.0921 29.7434 20.9298 29.9942 20.9298C30.245 20.9298 30.4122 21.0921 30.4122 21.3354V23.5258C30.7466 23.3635 31.081 23.2013 31.4991 23.2013H37.7693V0H12.354V10.6272C12.354 10.8705 12.1868 11.0328 11.936 11.0328H0.900391V51.9189H29.827C29.5762 51.5944 29.409 51.1077 29.409 50.6209V43.4821H5.16414C4.91333 43.4821 4.74613 43.3199 4.74613 43.0765C4.74613 42.8331 4.91333 42.6709 5.16414 42.6709H29.409V38.3713H5.16414C4.91333 38.3713 4.74613 38.2091 4.74613 37.9657C4.74613 37.7223 4.91333 37.5601 5.16414 37.5601H29.409V33.2606H5.16414C4.91333 33.2606 4.74613 33.0983 4.74613 32.8549C4.74613 32.6116 4.99693 32.4493 5.24774 32.4493H29.4926V27.8253H27.4025H24.6436H21.8847H19.1258H16.3669H13.608H10.8491H8.09024H5.66576C5.41495 27.8253 5.24774 27.663 5.24774 27.4197C5.24774 27.1763 5.41495 27.0141 5.66576 27.0141H7.67223V21.3354C7.67223 21.0921 7.83943 20.9298 8.09024 20.9298C8.34105 20.9298 8.50826 21.0921 8.50826 21.3354V27.0141H10.3475V18.4961C10.3475 18.2527 10.5147 18.0905 10.7655 18.0905C11.0163 18.0905 11.1836 18.2527 11.1836 18.4961V27.0141H13.0228V21.3354C13.0228 21.0921 13.19 20.9298 13.4408 20.9298C13.6916 20.9298 13.8588 21.0921 13.8588 21.3354V27.0141H15.6981V22.9579C15.6981 22.7145 15.8653 22.5523 16.1161 22.5523C16.3669 22.5523 16.5341 22.7145 16.5341 22.9579V27.0141H18.3734V21.3354C18.3734 21.0921 18.5406 20.9298 18.7914 20.9298C19.0422 20.9298 19.2094 21.0921 19.2094 21.3354V27.0141H21.0487V18.4961C21.0487 18.2527 21.2159 18.0905 21.4667 18.0905C21.7175 18.0905 21.8847 18.2527 21.8847 18.4961V27.0141H23.724V21.3354C23.724 21.0921 23.8912 20.9298 24.142 20.9298C24.3928 20.9298 24.56 21.0921 24.56 21.3354V27.0141H26.9009V21.3354C26.9009 21.0921 27.0681 20.9298 27.3189 20.9298C27.5697 20.9298 27.7369 21.0921 27.7369 21.3354V27.0141H29.409ZM16.7849 2.67707H35.3448C35.5956 2.67707 35.7628 2.83932 35.7628 3.08269C35.7628 3.32606 35.5956 3.4883 35.3448 3.4883H16.7849C16.5341 3.4883 16.3669 3.32606 16.3669 3.08269C16.3669 2.83932 16.5341 2.67707 16.7849 2.67707ZM16.7849 6.57099H26.9009C27.1517 6.57099 27.3189 6.73324 27.3189 6.97661C27.3189 7.21998 27.1517 7.38222 26.9009 7.38222H16.7849C16.5341 7.38222 16.3669 7.21998 16.3669 6.97661C16.3669 6.73324 16.5341 6.57099 16.7849 6.57099ZM27.5697 19.4696C27.4025 19.5507 27.1517 19.5507 27.0681 19.4696L21.6339 15.0078L16.4505 20.2808C16.3669 20.362 16.2833 20.4431 16.1161 20.4431C16.0325 20.4431 15.9489 20.4431 15.8653 20.362L10.4311 15.9002L6.00017 19.6318C5.83296 19.7941 5.58216 19.7941 5.41495 19.6318C5.16414 19.4696 5.16414 19.1451 5.41495 18.9829L10.0131 14.8456C10.1803 14.6833 10.4311 14.6833 10.5983 14.8456L16.0325 19.3073L21.2159 14.0343C21.3831 13.8721 21.6339 13.8721 21.8011 14.0343L27.3189 18.5772L35.2612 13.2231L33.0875 13.142C32.8367 13.142 32.6695 12.9797 32.6695 12.7364C32.6695 12.493 32.8367 12.3307 33.0875 12.3307L36.5988 12.4119C36.6824 12.4119 36.6824 12.4119 36.766 12.4119C36.766 12.4119 36.766 12.4119 36.8497 12.4119C36.9333 12.4119 36.9333 12.493 37.0169 12.493C37.0169 12.5741 37.1005 12.5741 37.1005 12.6552C37.1005 12.6552 37.1005 12.6552 37.1005 12.7364C37.1005 12.8175 37.1005 12.8175 37.1005 12.8986L35.7628 16.0624C35.6792 16.2247 35.512 16.3058 35.3448 16.3058C35.2612 16.3058 35.2612 16.3058 35.1776 16.3058C34.9268 16.2247 34.8432 15.9813 34.9268 15.7379L35.6792 13.9532L27.5697 19.4696Z" stroke="#FD7E14" stroke-width="1.4" mask="url(#path-3-inside-1_429:17)"/>
</svg>
