<svg width="46" height="52" viewBox="0 0 46 52" fill="none" xmlns="http://www.w3.org/2000/svg">
<path d="M34 39V40H36C36.5302 40.0006 37.0386 40.2115 37.4135 40.5865C37.7885 40.9614 37.9994 41.4698 38 42V43C37.9994 43.5302 37.7885 44.0386 37.4135 44.4135C37.0386 44.7885 36.5302 44.9994 36 45C36 45.2652 35.8946 45.5196 35.7071 45.7071C35.5196 45.8946 35.2652 46 35 46C34.7348 46 34.4804 45.8946 34.2929 45.7071C34.1054 45.5196 34 45.2652 34 45H33C32.7348 45 32.4804 44.8946 32.2929 44.7071C32.1054 44.5196 32 44.2652 32 44C32 43.7348 32.1054 43.4804 32.2929 43.2929C32.4804 43.1054 32.7348 43 33 43H36V42H34C33.4698 41.9994 32.9614 41.7885 32.5865 41.4135C32.2115 41.0386 32.0006 40.5302 32 40V39C32.0006 38.4698 32.2115 37.9614 32.5865 37.5865C32.9614 37.2115 33.4698 37.0006 34 37C34 36.7348 34.1054 36.4804 34.2929 36.2929C34.4804 36.1054 34.7348 36 35 36C35.2652 36 35.5196 36.1054 35.7071 36.2929C35.8946 36.4804 36 36.7348 36 37H37C37.2652 37 37.5196 37.1054 37.7071 37.2929C37.8946 37.4804 38 37.7348 38 38C38 38.2652 37.8946 38.5196 37.7071 38.7071C37.5196 38.8946 37.2652 39 37 39H34ZM46 41C45.9967 43.9164 44.8367 46.7124 42.7746 48.7746C40.7124 50.8367 37.9164 51.9967 35 52H3C2.20462 51.9991 1.44206 51.6828 0.879644 51.1204C0.317225 50.5579 0.000873479 49.7954 0 49V3C0.000873479 2.20462 0.317225 1.44206 0.879644 0.879644C1.44206 0.317225 2.20462 0.000873479 3 0H33C33.7954 0.000873479 34.5579 0.317225 35.1204 0.879644C35.6828 1.44206 35.9991 2.20462 36 3V30.0507C38.731 30.3026 41.2698 31.5646 43.1194 33.5897C44.9689 35.6149 45.9961 38.2574 46 41V41ZM28.6953 50C26.8481 48.7097 25.4423 46.8826 24.6685 44.7664C23.8946 42.6502 23.7901 40.3473 24.3691 38.1697C24.9482 35.9921 26.1827 34.0453 27.9055 32.5929C29.6282 31.1406 31.7559 30.2531 34 30.0507V3C33.9997 2.73486 33.8943 2.48066 33.7068 2.29319C33.5193 2.10571 33.2651 2.00026 33 2H3C2.73489 2.00034 2.48073 2.10581 2.29327 2.29327C2.10581 2.48073 2.00034 2.73489 2 3V49C2.00034 49.2651 2.10581 49.5193 2.29327 49.7067C2.48073 49.8942 2.73489 49.9997 3 50H28.6953ZM44 41C44 39.22 43.4722 37.4799 42.4832 35.9999C41.4943 34.5198 40.0887 33.3663 38.4441 32.6851C36.7996 32.0039 34.99 31.8257 33.2442 32.1729C31.4984 32.5202 29.8947 33.3774 28.636 34.636C27.3774 35.8947 26.5202 37.4984 26.1729 39.2442C25.8257 40.99 26.0039 42.7996 26.6851 44.4441C27.3663 46.0887 28.5198 47.4943 29.9999 48.4832C31.4799 49.4722 33.22 50 35 50C37.3861 49.9974 39.6738 49.0483 41.361 47.361C43.0483 45.6738 43.9974 43.3861 44 41V41ZM43 41C43 42.5823 42.5308 44.129 41.6518 45.4446C40.7727 46.7602 39.5233 47.7855 38.0615 48.391C36.5997 48.9965 34.9911 49.155 33.4393 48.8463C31.8874 48.5376 30.462 47.7757 29.3431 46.6569C28.2243 45.538 27.4624 44.1126 27.1537 42.5607C26.845 41.0089 27.0035 39.4003 27.609 37.9385C28.2145 36.4767 29.2398 35.2273 30.5554 34.3482C31.871 33.4692 33.4177 33 35 33C37.121 33.0024 39.1544 33.8461 40.6542 35.3458C42.1539 36.8456 42.9976 38.879 43 41V41ZM41 41C41 39.8133 40.6481 38.6533 39.9888 37.6666C39.3295 36.6799 38.3925 35.9108 37.2961 35.4567C36.1997 35.0026 34.9933 34.8838 33.8295 35.1153C32.6656 35.3468 31.5965 35.9182 30.7574 36.7574C29.9182 37.5965 29.3468 38.6656 29.1153 39.8295C28.8838 40.9933 29.0026 42.1997 29.4567 43.2961C29.9108 44.3925 30.6799 45.3295 31.6666 45.9888C32.6533 46.6481 33.8133 47 35 47C36.5908 46.9983 38.1159 46.3656 39.2407 45.2407C40.3656 44.1159 40.9983 42.5908 41 41ZM6 17C5.46973 16.9995 4.96133 16.7886 4.58637 16.4136C4.21141 16.0387 4.00053 15.5303 4 15V6C4.00053 5.46973 4.21141 4.96133 4.58637 4.58637C4.96133 4.21141 5.46973 4.00053 6 4H30C30.5302 4.00061 31.0386 4.21152 31.4135 4.58646C31.7885 4.9614 31.9994 5.46975 32 6V15C31.9994 15.5302 31.7885 16.0386 31.4135 16.4135C31.0386 16.7885 30.5302 16.9994 30 17H6ZM6 15H30.001L30 6H6V15ZM13 7H9C8.73478 7 8.48043 7.10536 8.29289 7.29289C8.10536 7.48043 8 7.73478 8 8C8 8.26522 8.10536 8.51957 8.29289 8.70711C8.48043 8.89464 8.73478 9 9 9H10V13C10 13.2652 10.1054 13.5196 10.2929 13.7071C10.4804 13.8946 10.7348 14 11 14C11.2652 14 11.5196 13.8946 11.7071 13.7071C11.8946 13.5196 12 13.2652 12 13V9H13C13.2652 9 13.5196 8.89464 13.7071 8.70711C13.8946 8.51957 14 8.26522 14 8C14 7.73478 13.8946 7.48043 13.7071 7.29289C13.5196 7.10536 13.2652 7 13 7ZM21 8V13C21 13.2652 20.8946 13.5196 20.7071 13.7071C20.5196 13.8946 20.2652 14 20 14C19.7348 14 19.4804 13.8946 19.2929 13.7071C19.1054 13.5196 19 13.2652 19 13V12H17V13C17 13.2652 16.8946 13.5196 16.7071 13.7071C16.5196 13.8946 16.2652 14 16 14C15.7348 14 15.4804 13.8946 15.2929 13.7071C15.1054 13.5196 15 13.2652 15 13V8C15 7.73478 15.1054 7.48043 15.2929 7.29289C15.4804 7.10536 15.7348 7 16 7H20C20.2652 7 20.5196 7.10536 20.7071 7.29289C20.8946 7.48043 21 7.73478 21 8ZM19 10V9H17V10H19ZM26.2811 10.5L27.7816 8.624C27.9408 8.41635 28.0122 8.15459 27.9806 7.89488C27.949 7.63517 27.8169 7.39818 27.6125 7.23476C27.4082 7.07134 27.148 6.99449 26.8877 7.02071C26.6274 7.04693 26.3877 7.17412 26.2201 7.375L25 8.9L23.78 7.3756C23.6991 7.26999 23.5978 7.18159 23.4823 7.11559C23.3668 7.04959 23.2392 7.00732 23.1071 6.99125C22.975 6.97517 22.841 6.98562 22.713 7.02198C22.585 7.05835 22.4656 7.11989 22.3617 7.203C22.2578 7.28612 22.1715 7.38914 22.1079 7.50603C22.0443 7.62292 22.0047 7.75132 21.9913 7.88371C21.978 8.01611 21.9912 8.14983 22.0302 8.27705C22.0692 8.40427 22.1332 8.52243 22.2185 8.6246L23.72 10.5L22.22 12.375C22.0544 12.5822 21.9778 12.8467 22.0072 13.1103C22.0366 13.374 22.1696 13.6151 22.3768 13.7808C22.584 13.9464 22.8485 14.0229 23.1121 13.9935C23.3757 13.9641 23.6169 13.8312 23.7825 13.624L25 12.1014L26.2183 13.6245C26.3839 13.8317 26.6251 13.9646 26.8887 13.994C27.1523 14.0234 27.4168 13.9469 27.6241 13.7812C27.8313 13.6156 27.9642 13.3745 27.9936 13.1108C28.023 12.8472 27.9464 12.5827 27.7808 12.3755L26.2811 10.5ZM6 23H12C12.2652 23 12.5196 22.8946 12.7071 22.7071C12.8946 22.5196 13 22.2652 13 22C13 21.7348 12.8946 21.4804 12.7071 21.2929C12.5196 21.1054 12.2652 21 12 21H6C5.73478 21 5.48043 21.1054 5.29289 21.2929C5.10536 21.4804 5 21.7348 5 22C5 22.2652 5.10536 22.5196 5.29289 22.7071C5.48043 22.8946 5.73478 23 6 23V23ZM30 25H6C5.73478 25 5.48043 25.1054 5.29289 25.2929C5.10536 25.4804 5 25.7348 5 26C5 26.2652 5.10536 26.5196 5.29289 26.7071C5.48043 26.8946 5.73478 27 6 27H30C30.2652 27 30.5196 26.8946 30.7071 26.7071C30.8946 26.5196 31 26.2652 31 26C31 25.7348 30.8946 25.4804 30.7071 25.2929C30.5196 25.1054 30.2652 25 30 25ZM19 29H6C5.73478 29 5.48043 29.1054 5.29289 29.2929C5.10536 29.4804 5 29.7348 5 30C5 30.2652 5.10536 30.5196 5.29289 30.7071C5.48043 30.8946 5.73478 31 6 31H19C19.2652 31 19.5196 30.8946 19.7071 30.7071C19.8946 30.5196 20 30.2652 20 30C20 29.7348 19.8946 29.4804 19.7071 29.2929C19.5196 29.1054 19.2652 29 19 29ZM19 33H6C5.73478 33 5.48043 33.1054 5.29289 33.2929C5.10536 33.4804 5 33.7348 5 34C5 34.2652 5.10536 34.5196 5.29289 34.7071C5.48043 34.8946 5.73478 35 6 35H19C19.2652 35 19.5196 34.8946 19.7071 34.7071C19.8946 34.5196 20 34.2652 20 34C20 33.7348 19.8946 33.4804 19.7071 33.2929C19.5196 33.1054 19.2652 33 19 33ZM19 45H6C5.73478 45 5.48043 45.1054 5.29289 45.2929C5.10536 45.4804 5 45.7348 5 46C5 46.2652 5.10536 46.5196 5.29289 46.7071C5.48043 46.8946 5.73478 47 6 47H19C19.2652 47 19.5196 46.8946 19.7071 46.7071C19.8946 46.5196 20 46.2652 20 46C20 45.7348 19.8946 45.4804 19.7071 45.2929C19.5196 45.1054 19.2652 45 19 45Z" fill="#FD7E14" fill-opacity="0.75"/>
</svg>
